<svg width="1200" height="1200" viewBox="0 0 1200 1200" fill="none" xmlns="http://www.w3.org/2000/svg">
<mask id="mask0_409_3640" style="mask-type:alpha" maskUnits="userSpaceOnUse" x="0" y="0" width="1197" height="1197">
<circle cx="598.033" cy="598.033" r="598.033" fill="#D9D9D9"/>
</mask>
<g mask="url(#mask0_409_3640)">
<path d="M1130.2 330.588C1368.24 789.02 949.804 1306.27 450.981 1180C227.059 1124.31 47.0589 930.196 9.80403 702.353C-32.5489 475.686 69.804 232.157 261.177 103.922C523.53 -76.4704 887.059 -16.4704 1074.9 241.569C1076.08 242.745 1075.69 244.706 1074.12 245.883C1072.94 247.059 1070.98 246.667 1069.8 245.098C1043.92 211.765 1014.51 181.569 982.353 154.51C929.412 109.412 867.451 74.1179 801.961 50.1963C468.628 -70.588 102.745 130.196 29.804 478.824C-52.5489 869.412 279.608 1229.02 675.686 1175.29C981.177 1136.86 1208.24 854.902 1183.14 548.235C1177.65 474.118 1158.04 400.785 1125.49 333.334C1124.71 332.157 1125.49 330.588 1126.67 329.804C1127.84 329.02 1129.41 329.412 1130.2 330.588Z" fill="black"/>
<path d="M1056.08 1334.9H64.3162C64.3162 1334.9 122.748 1211.76 148.63 1071.37C166.669 974.118 180.002 917.255 230.591 885.882C266.277 863.922 366.669 832.157 438.042 821.961C467.061 818.039 524.708 813.726 574.512 817.647C612.159 822.353 689.806 844.314 719.61 852.549C764.316 865.098 861.179 902.353 903.924 941.569C920.787 957.255 960.787 1035.69 986.669 1149.41C1016.47 1278.82 1056.08 1334.9 1056.08 1334.9Z" fill="white"/>
<path d="M1065.1 1339.61C769.805 1341.96 355.687 1347.45 64.7069 1347.06C56.0795 1347.45 49.805 1337.65 53.7265 1329.8C60.7854 1314.9 67.452 1299.61 73.7265 1283.92C101.962 1214.12 125.883 1142.35 140.393 1068.63C152.158 1010.98 161.57 946.667 205.099 903.138C217.256 890.981 232.158 881.569 247.452 874.51C278.432 860.392 310.197 848.628 342.354 838.432C407.06 817.255 475.687 808.236 543.923 809.412C578.04 809.412 612.55 814.902 645.883 822.745C660.393 825.49 680.785 831.765 694.903 835.687L707.06 839.216C709.413 840.392 710.197 845.098 711.374 847.451C712.158 849.02 712.942 849.412 714.119 849.804C716.079 850.196 719.217 847.451 721.177 848.236C760.785 860 798.825 877.255 835.295 896.471C861.177 910.981 887.844 925.098 909.021 946.275C927.452 969.804 942.354 996.079 956.079 1022.75C989.413 1091.37 998.825 1169.02 1024.31 1240C1033.73 1267.06 1044.71 1294.12 1058.04 1319.61L1060.79 1324.71L1062.35 1327.45L1063.14 1328.63L1063.53 1329.41C1065.88 1330.98 1066.67 1336.86 1065.1 1339.61ZM1047.06 1330.2C1045.1 1332.55 1045.49 1337.65 1047.06 1339.61L1046.67 1338.82L1045.88 1337.26L1044.31 1334.51C1028.24 1306.27 1016.86 1276.08 1006.67 1245.49C980.001 1165.49 971.374 1080 933.727 1003.92C924.315 984.706 914.903 965.098 900.785 949.02C892.55 941.569 883.53 935.294 874.119 929.412C831.766 903.53 784.315 885.883 737.648 869.02C733.727 867.451 723.923 864.314 720.001 863.138C716.864 862.353 715.687 861.961 714.903 858.039C714.119 854.902 713.334 850.981 709.805 852.549C707.844 853.334 704.315 858.039 701.962 857.647C694.119 855.687 673.334 850.196 665.491 848.236C635.295 840.392 605.491 830.588 574.903 824.706C480.785 816.471 386.668 832.941 296.864 860.785C265.883 871.373 231.766 881.177 209.413 906.667C170.589 954.902 163.923 1036.08 151.766 1096.08C134.903 1179.61 109.413 1260.78 75.2952 1339.61L64.3148 1322.35C348.236 1323.53 759.217 1327.06 1047.06 1330.2Z" fill="black"/>
<path d="M425.882 861.569C413.725 862.745 400.784 865.49 389.804 871.765C388.627 872.549 387.059 870.588 388.235 869.804C398.431 860.784 411.373 855.686 423.922 851.765C426.667 850.981 429.412 852.549 429.804 855.294C430.98 858.432 429.02 861.569 425.882 861.569Z" fill="black"/>
<path d="M457.256 911.766C443.138 914.903 429.413 921.57 418.04 930.981C409.021 932.55 431.766 914.119 433.334 913.334C440.001 908.628 446.668 905.099 454.511 901.962C456.864 901.177 460.001 902.354 460.785 904.707C462.354 908.236 460.393 911.373 457.256 911.766Z" fill="black"/>
<path d="M507.841 961.961C496.469 970.98 486.665 983.137 480.39 996.47C479.998 997.255 478.822 997.647 478.038 997.255C477.253 996.863 476.861 996.078 477.253 995.294C479.606 987.843 482.743 980.392 487.057 973.725C491.371 966.667 496.077 960.392 501.567 954.51C503.528 952.549 506.665 952.549 508.626 954.51C510.587 956.47 510.587 960.392 507.841 961.961Z" fill="black"/>
<path d="M592.549 1000.78C585.882 1014.9 580.784 1030.2 580 1045.88C580 1048.63 575.294 1048.63 575.294 1045.88C574.51 1033.33 576.47 1020.78 580 1009.02C581.961 1004.31 582.353 991.765 590.196 994.118C592.549 994.902 593.725 998.039 592.549 1000.78Z" fill="black"/>
<path d="M682.351 1002.35C684.704 1007.84 702.743 1051.77 694.116 1052.16C692.939 1052.16 691.763 1051.37 691.763 1050.2C691.371 1046.28 690.194 1042.75 688.626 1038.82C684.704 1027.84 679.214 1016.86 673.332 1006.67C670.587 1000.79 679.606 996.079 682.351 1002.35Z" fill="black"/>
<path d="M719.608 915.686C734.118 918.432 746.275 927.059 755.294 938.039C755.686 938.432 755.686 939.608 755.294 940C754.902 940.392 754.118 940.392 753.333 940C743.922 931.765 731.373 925.882 718.824 925.49C711.373 925.098 712.549 914.51 719.608 915.686Z" fill="black"/>
<path d="M705.489 869.805C717.646 872.942 729.019 878.04 738.038 886.668C738.823 887.452 738.823 888.628 738.038 889.413C737.254 890.197 736.47 890.197 735.685 889.805C726.274 883.53 714.901 880.393 703.921 879.609C696.862 878.824 698.43 868.236 705.489 869.805Z" fill="black"/>
<path d="M719.608 970.98C730.588 980 741.568 989.412 748.627 1001.96C749.019 1002.35 748.627 1003.14 748.235 1003.53C747.843 1003.92 747.059 1003.53 746.667 1003.14C738.039 992.549 726.274 985.49 714.51 978.824C708.235 975.686 713.725 966.667 719.608 970.98Z" fill="black"/>
<path d="M717.647 963.137C709.412 1003.53 656.079 1027.84 566.275 991.372C472.941 953.725 432.549 863.921 422.353 837.254C477.647 733.725 439.216 661.96 439.216 661.96C566.667 650.98 678.039 799.999 678.039 799.999L695.294 873.725C696.863 879.999 700 885.49 704.706 889.411C712.941 903.921 722.745 937.254 717.647 963.137Z" fill="white"/>
<path d="M420.394 838.431C427.845 827.058 432.551 813.725 435.688 800.784C441.57 773.725 443.531 746.274 443.923 718.823V708.627C442.747 698.431 439.217 687.843 435.296 678.431C430.198 665.882 448.629 658.039 454.512 670.588C455.296 672.156 455.296 674.902 455.296 676.47C456.472 729.803 458.825 798.431 425.1 842.745C422.747 845.098 418.041 841.568 420.394 838.431Z" fill="black"/>
<path d="M682.354 799.216C688.236 802.745 690.197 807.451 690.981 812.157C693.334 821.568 692.55 831.765 694.903 841.568C696.863 850.98 702.746 860 704.314 869.804C706.275 880 712.157 901.569 714.51 912.157C715.295 914.51 713.726 917.255 710.981 917.647C709.412 918.039 708.236 917.647 707.059 916.863C701.961 912.549 699.609 908.235 696.471 902.745C691.373 893.333 687.844 884.706 684.707 874.117C681.961 864.706 683.138 854.51 680.785 844.706C678.824 835.294 673.334 826.274 671.373 816.47C670.197 811.765 669.805 806.666 673.334 800.784C675.687 798.431 679.608 797.647 682.354 799.216Z" fill="black"/>
<path d="M710.59 902.745C635.688 898.823 574.512 875.294 514.904 769.019C565.1 813.333 624.316 830.195 686.669 838.039L694.904 874.117C696.472 880.392 705.884 898.823 710.59 902.745Z" fill="black"/>
<path d="M707.454 888.235C720.788 913.333 728.631 944.705 720.396 972.548C714.121 992.156 696.082 1006.67 676.474 1012.16C630.984 1024.31 578.435 1005.1 538.043 983.529C488.239 955.686 451.376 909.019 427.847 858.039C426.278 854.117 431.768 850.98 434.121 854.901C442.356 871.372 451.768 887.45 462.356 901.96C472.945 916.862 485.101 930.588 498.827 942.744C538.827 978.823 592.945 1001.18 647.062 1001.18C702.749 999.607 723.925 970.195 710.984 916.078C709.023 907.45 705.886 898.431 701.572 890.98C699.219 887.842 705.101 884.313 707.454 888.235Z" fill="black"/>
<path d="M859.218 417.255C866.276 450.196 852.551 465.098 852.551 553.333C852.551 597.647 856.472 625.882 843.531 679.608C837.649 704.314 819.217 734.51 806.668 757.255C794.119 780 802.355 818.039 781.178 835.686C717.649 888.627 640.786 873.725 570.982 829.019C568.237 827.451 552.943 809.412 548.237 805.882C532.159 793.725 505.492 780.784 497.649 772.941C475.688 751.372 492.159 713.333 478.825 690.98C461.57 662.353 440.786 685.49 418.433 660.784C387.453 627.059 350.198 559.215 368.629 439.215C398.433 244.706 552.551 221.961 666.668 243.529C781.57 265.49 840.394 330.588 859.218 417.255Z" fill="white"/>
<path d="M438.041 695.686C429.021 680.784 417.649 667.843 407.061 653.725C391.374 632.157 379.61 608.235 371.766 583.137C338.041 475.294 356.472 334.902 456.864 268.235C548.629 206.274 727.061 225.882 806.668 302.353C841.962 334.117 876.08 400.392 868.629 448.235C861.963 482.353 856.08 516.078 857.257 550.98C857.257 568.235 859.217 585.49 859.217 603.137C860.394 638.431 854.119 674.117 840.786 707.058C834.119 723.529 825.884 739.215 816.864 754.509C815.296 756.862 814.119 760.392 813.335 764.706C810.198 777.255 808.629 789.804 805.884 802.745C802.747 816.47 799.217 832.157 787.453 842.353C754.904 868.627 711.374 876.47 670.982 873.333C642.747 870.98 615.296 863.529 589.806 851.372C567.453 838.039 552.551 816.47 533.727 799.215C531.766 797.255 534.119 794.117 536.472 795.294C550.198 802.745 566.668 816.078 579.217 825.882C592.943 837.255 607.061 841.96 623.139 846.666C639.217 851.372 655.688 854.902 672.159 856.078C708.629 858.823 747.845 852.157 777.257 829.411C785.1 821.96 787.845 810.196 790.59 799.215C794.119 784.313 796.08 768.627 801.178 754.117C801.963 751.764 803.531 748.627 804.708 747.058C814.119 732.941 822.747 718.039 829.806 702.745C844.315 671.764 851.766 638.039 851.766 603.921C851.766 586.666 850.198 569.411 849.806 552.157C849.413 525.882 849.021 499.607 851.374 473.333C852.551 460.392 854.512 448.235 854.119 435.686C849.021 390.98 827.845 347.058 796.472 314.902C728.629 245.882 600.002 226.274 510.982 259.215C405.884 298.431 378.433 404.706 372.551 506.274C368.629 567.059 387.061 626.666 432.943 668.627L451.374 687.843C457.649 694.902 444.315 705.098 438.041 695.686Z" fill="black"/>
<path d="M484.316 570.98C484.316 570.98 472.159 512.157 414.904 519.215C365.492 525.49 348.237 643.921 460.394 676.863" fill="white"/>
<path d="M455.296 625.49C446.276 620.392 440.002 611.765 439.61 601.176C440.002 593.333 441.178 584.314 439.217 576.471C438.041 569.02 430.198 567.059 424.315 567.451C418.041 568.627 414.119 576.471 412.943 582.745C412.943 583.137 412.551 584.314 412.551 584.706C412.159 586.667 409.021 586.667 408.237 584.706C403.139 569.412 414.512 552.549 430.982 554.51C454.119 556.078 457.257 580.392 452.943 598.823C450.59 606.667 453.727 613.725 458.041 620.392L458.825 621.569C460.786 623.921 457.649 627.059 455.296 625.49Z" fill="black"/>
<path d="M769.021 529.412C774.904 557.255 785.884 583.137 799.61 607.451C811.766 637.255 780.394 665.49 752.551 664.313C749.413 664.313 749.021 660 751.766 659.215C769.413 653.725 785.492 641.961 788.237 623.921C789.413 618.431 787.845 613.725 785.1 609.019C772.159 584.706 764.315 556.862 766.276 529.412C766.276 527.451 769.021 527.451 769.021 529.412Z" fill="black"/>
<path d="M482.353 571.372C473.333 548.235 453.726 526.274 427.451 526.666C425.098 526.274 421.177 527.058 418.824 527.058C412.157 527.45 406.667 529.803 401.569 534.509C376.471 559.607 380.784 603.921 401.177 631.764C408.235 641.568 417.255 650.196 427.451 657.254C437.647 664.313 449.02 669.803 461.176 674.509C463.922 675.294 462.745 679.607 460 679.215C433.726 673.725 408.627 660.784 391.373 639.215C364.706 607.058 359.216 553.333 390.98 521.96C398.039 515.686 407.843 510.98 417.647 510.98C420.784 510.98 425.49 510.196 428.627 510.98C445.098 511.764 460.784 520 470.98 532.941C480 543.921 485.098 557.254 486.667 570.588C486.667 572.941 483.137 573.725 482.353 571.372Z" fill="black"/>
<path d="M739.609 684.314C754.118 675.686 767.06 691.373 759.216 705.098C757.256 709.02 754.903 711.765 752.158 714.902L751.765 705.49C766.275 718.039 762.746 736.863 745.883 744.706C743.138 745.882 730.197 749.804 730.197 745.098C730.197 743.922 730.981 743.137 732.158 743.137C741.961 742.745 755.295 732.941 751.373 721.961C750.197 719.216 747.452 716.079 745.099 714.902C742.354 713.333 741.569 710.196 743.138 707.451C746.275 703.922 753.726 700 753.726 693.333C752.942 687.451 747.06 685.49 741.569 687.451C739.216 688.628 737.648 685.49 739.609 684.314Z" fill="black"/>
<path d="M680.39 487.843C689.018 489.02 695.685 480 692.547 471.373C690.979 466.667 688.234 462.353 683.92 459.608C670.587 451.373 620.783 450.589 594.508 469.412C570.979 486.667 641.175 482.353 680.39 487.843Z" fill="black"/>
<path d="M789.018 492.157C781.959 492.157 777.645 483.138 781.175 475.687C783.135 471.765 785.881 468.236 789.802 466.275C801.959 460.393 834.508 463.922 849.018 483.922C861.959 501.569 821.567 491.765 789.018 492.157Z" fill="black"/>
<path d="M665.881 538.432C645.881 529.804 623.136 532.157 602.351 536.863C599.998 537.647 598.43 534.51 600.391 532.941C618.43 518.04 652.547 516.079 667.057 536.471C668.234 537.255 667.449 538.824 665.881 538.432Z" fill="black"/>
<path d="M819.998 546.667C810.586 540 796.861 541.177 785.881 542.353C781.959 542.746 778.037 543.53 773.724 544.706C772.547 545.099 771.371 543.138 772.155 542.353L772.939 541.569C782.743 531.373 798.037 529.02 811.371 534.118C816.077 536.079 820.783 538.824 823.135 544.314C824.312 546.275 821.567 548.236 819.998 546.667Z" fill="black"/>
<path d="M860.308 529.802C860.7 527.841 861.092 525.88 861.092 523.92C865.014 499.214 867.759 476.469 869.328 454.9C872.465 410.978 864.23 331.763 801.092 284.312C795.602 279.998 789.72 276.077 783.053 272.547C777.563 269.41 771.681 266.665 765.798 263.92C714.426 241.959 631.681 215.684 549.72 229.802C518.347 234.9 486.975 246.273 457.563 265.488C457.171 265.488 457.171 265.88 457.171 265.88C385.798 312.939 360.7 387.449 347.367 457.645C343.053 479.998 339.916 502.351 337.171 522.743C335.602 533.331 334.034 543.528 332.465 552.939C326.583 588.626 306.975 620.39 286.19 645.488C285.014 646.665 283.837 648.233 282.661 649.41C265.798 668.626 248.935 683.92 237.171 692.939C236.386 693.331 235.602 694.116 235.21 694.508C261.092 776.077 359.916 837.253 451.288 855.684C464.622 797.253 473.641 738.037 462.269 677.253C459.132 676.077 457.563 674.9 457.563 674.116C349.328 639.998 366.583 523.92 415.602 517.645C433.249 515.292 446.19 519.606 456.386 525.88C470.112 536.077 485.014 561.567 485.014 569.018C485.798 551.763 493.249 527.841 502.269 527.057C511.681 526.273 521.092 524.312 530.112 520.782C575.21 505.096 616.386 462.743 652.857 425.096C703.053 373.331 743.837 329.41 772.857 372.939C774.426 375.292 775.994 377.645 777.171 379.998C811.681 379.214 827.759 399.214 835.994 419.998C835.994 419.998 835.994 419.998 835.994 420.39C842.661 438.037 843.445 456.077 844.23 460.782C844.23 461.567 844.23 461.959 844.622 461.959C843.837 477.645 841.877 504.312 841.485 538.822C841.485 554.508 843.053 585.88 841.877 603.92C841.485 609.41 841.092 614.9 840.7 619.998C840.308 622.743 840.308 625.488 839.916 627.841C839.524 630.194 839.524 632.939 839.132 635.684C838.739 639.606 838.347 643.528 837.955 647.841C837.563 651.371 837.171 654.9 836.779 658.429V658.822C836.387 661.567 835.994 663.92 835.602 666.273C829.72 697.645 820.7 730.979 807.759 750.979C781.877 791.371 761.485 825.488 724.23 842.743C687.367 859.606 645.406 863.135 645.406 863.135C645.406 863.135 657.171 870.586 685.014 872.155C712.465 873.724 732.857 865.488 753.249 869.018C796.779 876.469 873.249 876.469 873.249 876.469C930.504 725.88 833.641 718.822 860.308 529.802Z" fill="black"/>
<path d="M791.766 620C791.766 620 796.472 646.667 827.452 660C835.296 663.138 843.531 658.04 843.531 649.412C843.139 649.412 793.727 623.138 791.766 620Z" fill="black"/>
<path d="M549.413 620.001C549.413 620.001 563.923 652.942 607.452 660.785C650.982 669.02 690.59 637.648 709.021 585.099C709.021 585.099 694.119 633.726 634.511 642.746C575.688 652.55 549.413 620.001 549.413 620.001Z" fill="black"/>
<path d="M717.65 546.667C716.474 602.746 671.376 647.844 616.866 647.844C562.356 647.844 518.827 602.746 518.827 546.667C519.219 490.197 564.317 443.922 619.611 443.922C674.905 443.922 719.219 490.197 717.65 546.667Z" stroke="black" stroke-width="3" stroke-miterlimit="10" stroke-linecap="round" stroke-linejoin="round"/>
<path d="M771.374 533.726C777.649 483.138 810.59 443.53 849.413 443.53C891.374 443.53 923.531 489.804 921.178 546.275C918.825 602.353 883.531 647.451 842.354 647.451C827.06 647.451 813.335 641.569 801.962 630.981" stroke="black" stroke-width="3" stroke-miterlimit="10" stroke-linecap="round" stroke-linejoin="round"/>
<path d="M520.001 535.687H464.315" stroke="black" stroke-width="3" stroke-miterlimit="10" stroke-linecap="round" stroke-linejoin="round"/>
<path d="M718.041 535.687C718.041 535.687 764.707 517.648 770.59 535.687" stroke="black" stroke-width="3" stroke-miterlimit="10" stroke-linecap="round" stroke-linejoin="round"/>
<path d="M1130.2 330.588C1368.24 789.02 949.804 1306.27 450.981 1180C227.059 1124.31 47.0589 930.196 9.80403 702.353C-32.5489 475.686 69.804 232.157 261.177 103.922C523.53 -76.4704 887.059 -16.4704 1074.9 241.569C1076.08 242.745 1075.69 244.706 1074.12 245.883C1072.94 247.059 1070.98 246.667 1069.8 245.098C1043.92 211.765 1014.51 181.569 982.353 154.51C929.412 109.412 867.451 74.1179 801.961 50.1963C468.628 -70.588 102.745 130.196 29.804 478.824C-52.5489 869.412 279.608 1229.02 675.686 1175.29C981.177 1136.86 1208.24 854.902 1183.14 548.235C1177.65 474.118 1158.04 400.785 1125.49 333.334C1124.71 332.157 1125.49 330.588 1126.67 329.804C1127.84 329.02 1129.41 329.412 1130.2 330.588Z" fill="black"/>
</g>
</svg>
